<svg xmlns="http://www.w3.org/2000/svg" width="32px" height="32px" viewBox="0 0 512 512">
  <path fill="#fff" d="M425.777,391.055m-254.7-143.967M445.471,424.531c0.416,0.458.855,0.894,1.279,1.344,0.016-.017,1.025-1.155,1.025-1.155a254.524,254.524,0,0,0,63.618-168.691C511.393,114.912,397,.514,255.878.514S0.364,114.912.364,256.029A254.467,254.467,0,0,0,58.8,418.662,150.975,150.975,0,0,1,95,372l5-4c6.811-4.953,9.911-7.006,16.68-12.145a158.24,158.24,0,0,0,53.681-101.108l0.717-7.659A158.577,158.577,0,0,1,316.947,107.76c0.334-.024.569-0.044,0.735-0.06-1.879-.05,1.283-0.129,0,0,0.646,0.017,1.882.03,4.111,0.03a94.9,94.9,0,0,1,34.974,6.66,158.685,158.685,0,0,1,76.36,193.1l-5.035,15.494-2.735,8.415a95.1,95.1,0,0,0,20.114,93.136"/>
  <path fill="#fff" d="M337.454,288.808c5.06-5.923,8.273-10.114,11.859-17.108,0.341-.54.942-1.919,1.163-2.325a100.3,100.3,0,0,0,.09-91.246,47.287,47.287,0,0,0-25.116-.008A99.907,99.907,0,0,0,314.1,224.464a97.428,97.428,0,0,0,10.2,43.844,10.043,10.043,0,0,0,1.008,1.792,90.393,90.393,0,0,0,12.142,18.708m13.112-110.679-25.116-.008"/>
  <path fill="#fff" d="M272,197c-3.421,0-6.835-.219-10-2a28.574,28.574,0,0,1-5.5-16.593,29.393,29.393,0,0,1,5.717-17.445A29.256,29.256,0,0,1,272,159c2.652,0,5.555,1.345,8,2a27.127,27.127,0,0,1,5.57,16.907c0,6.777-2.862,14.013-5.57,17.093A14.226,14.226,0,0,1,272,197Zm0,0c-3.421,0-6.835-.219-10-2a28.574,28.574,0,0,1-5.5-16.593,29.393,29.393,0,0,1,5.717-17.445A29.256,29.256,0,0,1,272,159c2.652,0,5.555,1.345,8,2a27.127,27.127,0,0,1,5.57,16.907c0,6.777-2.862,14.013-5.57,17.093A14.226,14.226,0,0,1,272,197Z"/>
  <path fill="#fff" d="M389,197c-3.421,0-6.835-.219-10-2a28.574,28.574,0,0,1-5.5-16.593,29.393,29.393,0,0,1,5.717-17.445A29.256,29.256,0,0,1,389,159c2.652,0,5.555,1.345,8,2a27.127,27.127,0,0,1,5.57,16.907c0,6.777-2.862,14.013-5.57,17.093A14.226,14.226,0,0,1,389,197Zm0,0c-3.421,0-6.835-.219-10-2a28.574,28.574,0,0,1-5.5-16.593,29.393,29.393,0,0,1,5.717-17.445A29.256,29.256,0,0,1,389,159c2.652,0,5.555,1.345,8,2a27.127,27.127,0,0,1,5.57,16.907c0,6.777-2.862,14.013-5.57,17.093A14.226,14.226,0,0,1,389,197Z"/>
</svg>
