<?xml version="1.0" encoding="UTF-8"?>
<svg id="Layer_2" data-name="Layer 2" xmlns="http://www.w3.org/2000/svg" viewBox="0 0 948.41 160.86">
  <g id="Layer_2-2" data-name="Layer 2">
    <g>
      <path d="m168.33,160.35c.16.17.32.34.48.51,0,0,.39-.44.39-.44,15.53-17.62,24.09-40.31,24.06-63.79C193.26,43.26,150,0,96.63,0S0,43.26,0,96.63c-.03,22.45,7.78,44.21,22.1,61.5,3.36-6.73,8.01-12.72,13.69-17.65l1.89-1.51c2.58-1.87,3.75-2.65,6.31-4.59,11.3-9.77,18.54-23.4,20.3-38.24l.27-2.9c3.41-28.5,26.54-50.59,55.16-52.69.13,0,.22-.02.28-.02-.71-.02.49-.05,0,0,.24,0,.71.01,1.55.01,4.53,0,9.02.85,13.23,2.52,26.43,13.79,38.72,44.89,28.88,73.02l-1.9,5.86-1.03,3.18c-3.95,12.26-1.05,25.69,7.61,35.22"/>
      <path d="m127.53,101.04c1.11-1.22,2.05-2.58,2.8-4.04.08-.13.22-.45.27-.55,3.47-6.77,3.47-14.79.02-21.57-1.94-.54-3.99-.54-5.94,0-1.76,3.38-2.68,7.14-2.68,10.95-.02,3.59.81,7.14,2.41,10.36.06.15.14.29.24.42.77,1.59,1.73,3.07,2.87,4.42m3.1-26.16h-5.94"/>
      <path d="m102.72,74.31c-1.29,0-2.58-.08-3.78-.76-1.33-1.82-2.06-4.02-2.08-6.27,0-2.37.76-4.69,2.16-6.6,1.18-.46,2.43-.71,3.7-.74,1,0,2.1.51,3.03.76,1.4,1.83,2.14,4.09,2.11,6.39,0,2.56-1.08,5.3-2.11,6.46-.91.55-1.96.81-3.03.76Zm0,0c-1.29,0-2.58-.08-3.78-.76-1.33-1.82-2.06-4.02-2.08-6.27,0-2.37.76-4.69,2.16-6.6,1.18-.46,2.43-.71,3.7-.74,1,0,2.1.51,3.03.76,1.4,1.83,2.14,4.09,2.11,6.39,0,2.56-1.08,5.3-2.11,6.46-.91.55-1.96.81-3.03.76Z"/>
      <path d="m146.97,74.31c-1.29,0-2.58-.08-3.78-.76-1.33-1.82-2.06-4.02-2.08-6.27,0-2.37.76-4.69,2.16-6.6,1.18-.46,2.43-.71,3.7-.74,1,0,2.1.51,3.03.76,1.4,1.83,2.14,4.09,2.11,6.39,0,2.56-1.08,5.3-2.11,6.46-.91.55-1.96.81-3.03.76Zm0,0c-1.29,0-2.58-.08-3.78-.76-1.33-1.82-2.06-4.02-2.08-6.27,0-2.37.76-4.69,2.16-6.6,1.18-.46,2.43-.71,3.7-.74,1,0,2.1.51,3.03.76,1.4,1.83,2.14,4.09,2.11,6.39,0,2.56-1.08,5.3-2.11,6.46-.91.55-1.96.81-3.03.76Z"/>
    </g>
    <g>
      <path d="m247.01,43.1h21.28v74.76h44.38v18.62h-65.66V43.1Z"/>
      <path d="m319.11,103.58c0-6.72,1.56-12.71,4.69-17.99,3.13-5.27,7.4-9.4,12.81-12.39,5.41-2.99,11.53-4.48,18.34-4.48s13.07,1.49,18.48,4.48c5.41,2.99,9.68,7.09,12.81,12.32,3.13,5.23,4.69,11.25,4.69,18.06s-1.56,12.72-4.69,17.99c-3.13,5.28-7.4,9.43-12.81,12.46-5.41,3.03-11.57,4.55-18.48,4.55s-12.93-1.49-18.34-4.48c-5.41-2.99-9.68-7.12-12.81-12.39-3.13-5.27-4.69-11.32-4.69-18.13Zm20.16.14c0,5.23,1.47,9.45,4.41,12.67,2.94,3.22,6.7,4.83,11.27,4.83s8.47-1.61,11.41-4.83c2.94-3.22,4.41-7.49,4.41-12.81s-1.45-9.45-4.34-12.67c-2.89-3.22-6.67-4.83-11.34-4.83s-8.47,1.61-11.41,4.83c-2.94,3.22-4.41,7.49-4.41,12.81Z"/>
      <path d="m399.05,103.58c0-6.72,1.56-12.71,4.69-17.99,3.13-5.27,7.4-9.4,12.81-12.39,5.41-2.99,11.53-4.48,18.34-4.48s13.07,1.49,18.48,4.48c5.41,2.99,9.68,7.09,12.81,12.32,3.12,5.23,4.69,11.25,4.69,18.06s-1.56,12.72-4.69,17.99c-3.13,5.28-7.4,9.43-12.81,12.46-5.41,3.03-11.57,4.55-18.48,4.55s-12.93-1.49-18.34-4.48c-5.41-2.99-9.68-7.12-12.81-12.39-3.13-5.27-4.69-11.32-4.69-18.13Zm20.16.14c0,5.23,1.47,9.45,4.41,12.67,2.94,3.22,6.7,4.83,11.27,4.83s8.47-1.61,11.41-4.83c2.94-3.22,4.41-7.49,4.41-12.81s-1.45-9.45-4.34-12.67c-2.89-3.22-6.67-4.83-11.34-4.83s-8.47,1.61-11.41,4.83c-2.94,3.22-4.41,7.49-4.41,12.81Z"/>
      <path d="m502.09,136.48h-20.16V43.1h20.16v50.54l21.98-22.82h22.54l-24.78,24.64,27.3,41.02h-22.82l-17.78-29.12-6.44,6.3v22.82Z"/>
      <path d="m593.93,118.56c0-1.96-.82-3.47-2.45-4.55-1.63-1.07-4.83-2.08-9.59-3.01l-4.62-.98c-7-1.49-12.09-3.97-15.26-7.42-3.17-3.45-4.76-7.61-4.76-12.46,0-6.62,2.61-11.85,7.84-15.68,5.23-3.83,12.37-5.74,21.42-5.74,9.61,0,17.92,2.66,24.92,7.98l-7,13.02c-2.61-1.87-5.44-3.34-8.47-4.41-3.03-1.07-6.23-1.61-9.59-1.61s-5.97.4-7.56,1.19c-1.59.79-2.38,2.08-2.38,3.85s.68,3.11,2.03,3.99c1.35.89,3.94,1.71,7.77,2.45l5.46,1.12c7.75,1.59,13.3,4.15,16.66,7.7,3.36,3.55,5.04,7.75,5.04,12.6s-1.33,9.05-3.99,12.32-6.3,5.69-10.92,7.28-9.92,2.38-15.89,2.38-11.48-.84-16.52-2.52-9.19-3.96-12.46-6.86l8.26-13.72c3.17,2.43,6.53,4.39,10.08,5.88,3.55,1.49,7.47,2.24,11.76,2.24,6.81,0,10.22-1.68,10.22-5.04Z"/>
      <path d="m642.23,61.72h-30.24v-18.62h81.48v18.62h-30.1v74.76h-21.14V61.72Z"/>
      <path d="m688.01,103.58c0-6.72,1.56-12.71,4.69-17.99,3.13-5.27,7.4-9.4,12.81-12.39,5.41-2.99,11.53-4.48,18.34-4.48s13.07,1.49,18.48,4.48c5.41,2.99,9.68,7.09,12.81,12.32,3.13,5.23,4.69,11.25,4.69,18.06s-1.56,12.72-4.69,17.99c-3.13,5.28-7.4,9.43-12.81,12.46-5.41,3.03-11.57,4.55-18.48,4.55s-12.93-1.49-18.34-4.48c-5.41-2.99-9.68-7.12-12.81-12.39-3.13-5.27-4.69-11.32-4.69-18.13Zm20.16.14c0,5.23,1.47,9.45,4.41,12.67,2.94,3.22,6.7,4.83,11.27,4.83s8.47-1.61,11.41-4.83c2.94-3.22,4.41-7.49,4.41-12.81s-1.45-9.45-4.34-12.67c-2.89-3.22-6.67-4.83-11.34-4.83s-8.47,1.61-11.41,4.83c-2.94,3.22-4.41,7.49-4.41,12.81Z"/>
      <path d="m845.93,75.72l-20.72,36.54h-10.78l-20.58-36.12-2.24,60.34h-20.3l4.34-93.38h20.3l24.5,43.26,24.36-43.26h20.16l4.34,93.38h-21.28l-2.1-60.76Z"/>
      <path d="m881.35,104.14c0-6.91,1.45-13.02,4.34-18.34,2.89-5.32,6.88-9.5,11.97-12.53,5.09-3.03,10.94-4.55,17.57-4.55s12.41,1.52,17.36,4.55c4.95,3.03,8.82,7.3,11.62,12.81,2.8,5.51,4.2,11.9,4.2,19.18v4.48h-47.32c.75,4.11,2.68,7.3,5.81,9.59,3.13,2.29,7.26,3.43,12.39,3.43,7.09,0,13.58-2.24,19.46-6.72l7.84,12.74c-3.36,3.08-7.58,5.48-12.67,7.21-5.09,1.73-10.52,2.59-16.31,2.59-7.28,0-13.65-1.4-19.11-4.2s-9.68-6.79-12.67-11.97c-2.99-5.18-4.48-11.27-4.48-18.27Zm43.68-15.68c-2.43-2.15-5.51-3.22-9.24-3.22-3.92,0-7.16,1.1-9.73,3.29-2.57,2.19-4.18,5.2-4.83,9.03h28.42c-.65-3.92-2.19-6.95-4.62-9.1Z"/>
    </g>
  </g>
</svg>